<svg width="18" height="14" viewBox="0 0 18 14" fill="none" xmlns="http://www.w3.org/2000/svg">
<path d="M0.896 13.392C0.848 13.072 0.8 12.688 0.752 12.24C0.704 11.776 0.68 11.28 0.68 10.752C0.68 8.848 0.952 7.088 1.496 5.472C2.056 3.84 2.952 2.304 4.184 0.863997L8.456 1.896C7.816 3.144 7.32 4.464 6.968 5.856C6.632 7.232 6.464 8.76 6.464 10.44C6.464 10.952 6.48 11.44 6.512 11.904C6.544 12.368 6.584 12.864 6.632 13.392H0.896ZM10.136 13.392C10.088 13.072 10.04 12.688 9.992 12.24C9.944 11.776 9.92 11.28 9.92 10.752C9.92 8.848 10.192 7.088 10.736 5.472C11.296 3.84 12.184 2.304 13.4 0.863997L17.672 1.896C17.032 3.144 16.544 4.464 16.208 5.856C15.872 7.232 15.704 8.76 15.704 10.44C15.704 10.952 15.712 11.44 15.728 11.904C15.76 12.368 15.8 12.864 15.848 13.392L10.136 13.392Z" fill="#D3D3D3"/>
</svg>
